<svg width="28" height="31" viewBox="0 0 28 31" fill="none" xmlns="http://www.w3.org/2000/svg">
<path d="M2.0186 16.2306L2.96644 15.7292H2.96644L2.0186 16.2306ZM4.33472 8.96359L3.8518 8.00622L4.33472 8.96359ZM5.38514 18.9L5.86806 19.8573C6.266 19.6566 6.49827 19.2306 6.45148 18.7874C6.4047 18.3442 6.0886 17.9761 5.65752 17.8629L5.38514 18.9ZM4.18327 19.5062L4.66619 20.4636H4.6662L4.18327 19.5062ZM1.86722 26.7731L0.919379 27.2745H0.919379L1.86722 26.7731ZM8.99478 29.0447L9.4777 30.0021L8.99478 29.0447ZM23.2255 21.8664L22.7426 20.909L23.2255 21.8664ZM25.5415 14.5995L26.4894 14.0981L25.5415 14.5995ZM22.1751 11.9302L21.6922 10.9729C21.2943 11.1736 21.062 11.5995 21.1088 12.0428C21.1556 12.486 21.4717 12.8541 21.9027 12.9673L22.1751 11.9302ZM23.3768 11.324L22.8939 10.3667L23.3768 11.324ZM25.693 4.05707L24.7451 4.55842V4.55842L25.693 4.05707ZM18.5652 1.78532L18.0823 0.827952V0.827952L18.5652 1.78532ZM2.96644 15.7292C1.84883 13.6163 2.68348 10.9975 4.81765 9.92096L3.8518 8.00622C0.645662 9.62349 -0.608237 13.5577 1.07075 16.7319L2.96644 15.7292ZM5.65752 17.8629C4.53929 17.5692 3.5474 16.8276 2.96644 15.7292L1.07075 16.7319C1.94361 18.3821 3.438 19.4972 5.11275 19.9371L5.65752 17.8629ZM4.6662 20.4636L5.86806 19.8573L4.90221 17.9426L3.70035 18.5489L4.6662 20.4636ZM2.81506 26.2717C1.69744 24.1589 2.53207 21.5401 4.66619 20.4636L3.70035 18.5489C0.494241 20.1661 -0.759626 24.1003 0.919379 27.2745L2.81506 26.2717ZM8.51186 28.0874C6.43536 29.1348 3.9025 28.3276 2.81506 26.2717L0.919379 27.2745C2.55304 30.363 6.35818 31.5757 9.4777 30.0021L8.51186 28.0874ZM22.7426 20.909L8.51186 28.0874L9.4777 30.0021L23.7084 22.8237L22.7426 20.909ZM24.5937 15.1009C25.7113 17.2138 24.8767 19.8325 22.7426 20.909L23.7084 22.8237C26.9145 21.2065 28.1684 17.2723 26.4894 14.0981L24.5937 15.1009ZM21.9027 12.9673C23.0209 13.261 24.0127 14.0026 24.5937 15.1009L26.4894 14.0981C25.6165 12.448 24.1222 11.333 22.4475 10.8931L21.9027 12.9673ZM22.8939 10.3667L21.6922 10.9729L22.6581 12.8876L23.8598 12.2814L22.8939 10.3667ZM24.7451 4.55842C25.8627 6.67136 25.0281 9.29014 22.8939 10.3667L23.8598 12.2814C27.0659 10.6641 28.3198 6.72997 26.6408 3.55572L24.7451 4.55842ZM19.0481 2.74269C21.1247 1.69521 23.6577 2.50251 24.7451 4.55842L26.6408 3.55572C25.0071 0.467131 21.2019 -0.745668 18.0823 0.827952L19.0481 2.74269ZM4.81765 9.92096L19.0481 2.74269L18.0823 0.827952L3.8518 8.00622L4.81765 9.92096Z" fill="#070707"/>
<path d="M10.8382 18.6745V12.0651C10.8369 11.9523 10.8659 11.8412 10.9222 11.7434C10.9786 11.6456 11.0602 11.5648 11.1585 11.5094C11.2568 11.454 11.3682 11.426 11.4811 11.4284C11.5939 11.4308 11.704 11.4635 11.7999 11.5231L17.5174 14.8278C17.6117 14.8834 17.6898 14.9627 17.7441 15.0577C17.7983 15.1528 17.8269 15.2604 17.8269 15.3698C17.8269 15.4793 17.7983 15.5868 17.7441 15.6819C17.6898 15.7769 17.6117 15.8562 17.5174 15.9118L11.7999 19.3039C11.6976 19.3696 11.5785 19.4043 11.457 19.4038C11.3354 19.4032 11.2166 19.3675 11.1149 19.301C11.0133 19.2344 10.933 19.1398 10.8839 19.0287C10.8348 18.9175 10.8189 18.7945 10.8382 18.6745Z" stroke="#070707" stroke-width="2.14669" stroke-linecap="round" stroke-linejoin="round"/>
</svg>
